<mxfile host="app.diagrams.net" modified="2021-03-13T14:23:33.885Z" agent="5.0 (Windows NT 10.0; Win64; x64) AppleWebKit/537.36 (KHTML, like Gecko) Chrome/88.0.4324.190 Safari/537.36" etag="Rd-_ea6dBafEiJWffyxo" version="14.4.8" type="github">
  <diagram id="Km3v8-BTc3TSZcGPFehC" name="Page-1">
    <mxGraphModel dx="1422" dy="762" grid="1" gridSize="10" guides="1" tooltips="1" connect="1" arrows="1" fold="1" page="1" pageScale="1" pageWidth="827" pageHeight="1169" math="0" shadow="0">
      <root>
        <mxCell id="0" />
        <mxCell id="1" parent="0" />
        <mxCell id="PCUXE8WsPGPpfUUDboGg-3" value="&lt;p&gt;&lt;br&gt;&lt;/p&gt;" style="shape=note;size=20;whiteSpace=wrap;html=1;align=center;" vertex="1" parent="1">
          <mxGeometry x="130" y="130" width="190" height="440" as="geometry" />
        </mxCell>
        <mxCell id="PCUXE8WsPGPpfUUDboGg-4" value="Adresse" style="text;strokeColor=none;fillColor=none;spacingLeft=4;spacingRight=4;overflow=hidden;rotatable=0;points=[[0,0.5],[1,0.5]];portConstraint=eastwest;fontSize=12;" vertex="1" parent="1">
          <mxGeometry x="140" y="220" width="160" height="34" as="geometry" />
        </mxCell>
        <mxCell id="PCUXE8WsPGPpfUUDboGg-5" value="id" style="text;strokeColor=none;fillColor=none;spacingLeft=4;spacingRight=4;overflow=hidden;rotatable=0;points=[[0,0.5],[1,0.5]];portConstraint=eastwest;fontSize=12;" vertex="1" parent="1">
          <mxGeometry x="140" y="164" width="160" height="30" as="geometry" />
        </mxCell>
        <mxCell id="PCUXE8WsPGPpfUUDboGg-6" value="Name" style="text;strokeColor=none;fillColor=none;spacingLeft=4;spacingRight=4;overflow=hidden;rotatable=0;points=[[0,0.5],[1,0.5]];portConstraint=eastwest;fontSize=12;" vertex="1" parent="1">
          <mxGeometry x="140" y="190" width="160" height="30" as="geometry" />
        </mxCell>
        <mxCell id="PCUXE8WsPGPpfUUDboGg-7" value="Inhaber" style="text;strokeColor=none;fillColor=none;spacingLeft=4;spacingRight=4;overflow=hidden;rotatable=0;points=[[0,0.5],[1,0.5]];portConstraint=eastwest;fontSize=12;" vertex="1" parent="1">
          <mxGeometry x="140" y="247" width="160" height="30" as="geometry" />
        </mxCell>
        <mxCell id="PCUXE8WsPGPpfUUDboGg-8" value="tisch1" style="text;strokeColor=none;fillColor=none;spacingLeft=4;spacingRight=4;overflow=hidden;rotatable=0;points=[[0,0.5],[1,0.5]];portConstraint=eastwest;fontSize=12;" vertex="1" parent="1">
          <mxGeometry x="140" y="310" width="160" height="30" as="geometry" />
        </mxCell>
        <mxCell id="PCUXE8WsPGPpfUUDboGg-9" value="status" style="text;strokeColor=none;fillColor=none;spacingLeft=4;spacingRight=4;overflow=hidden;rotatable=0;points=[[0,0.5],[1,0.5]];portConstraint=eastwest;fontSize=12;" vertex="1" parent="1">
          <mxGeometry x="164" y="333" width="160" height="30" as="geometry" />
        </mxCell>
        <mxCell id="PCUXE8WsPGPpfUUDboGg-11" value="Restaurant" style="text;strokeColor=none;fillColor=none;spacingLeft=4;spacingRight=4;overflow=hidden;rotatable=0;points=[[0,0.5],[1,0.5]];portConstraint=eastwest;fontSize=12;" vertex="1" parent="1">
          <mxGeometry x="190" y="130" width="80" height="34" as="geometry" />
        </mxCell>
        <mxCell id="PCUXE8WsPGPpfUUDboGg-13" value="anzahlPlätze" style="text;strokeColor=none;fillColor=none;spacingLeft=4;spacingRight=4;overflow=hidden;rotatable=0;points=[[0,0.5],[1,0.5]];portConstraint=eastwest;fontSize=12;" vertex="1" parent="1">
          <mxGeometry x="164" y="353" width="160" height="30" as="geometry" />
        </mxCell>
        <mxCell id="PCUXE8WsPGPpfUUDboGg-71" style="edgeStyle=orthogonalEdgeStyle;rounded=0;orthogonalLoop=1;jettySize=auto;html=1;entryX=0.005;entryY=0.278;entryDx=0;entryDy=0;entryPerimeter=0;" edge="1" parent="1" source="PCUXE8WsPGPpfUUDboGg-14" target="PCUXE8WsPGPpfUUDboGg-55">
          <mxGeometry relative="1" as="geometry" />
        </mxCell>
        <mxCell id="PCUXE8WsPGPpfUUDboGg-14" value="reservationID" style="text;strokeColor=none;fillColor=none;spacingLeft=4;spacingRight=4;overflow=hidden;rotatable=0;points=[[0,0.5],[1,0.5]];portConstraint=eastwest;fontSize=12;" vertex="1" parent="1">
          <mxGeometry x="164" y="373" width="160" height="30" as="geometry" />
        </mxCell>
        <mxCell id="PCUXE8WsPGPpfUUDboGg-19" value="tisch2" style="text;strokeColor=none;fillColor=none;spacingLeft=4;spacingRight=4;overflow=hidden;rotatable=0;points=[[0,0.5],[1,0.5]];portConstraint=eastwest;fontSize=12;" vertex="1" parent="1">
          <mxGeometry x="140" y="403" width="160" height="30" as="geometry" />
        </mxCell>
        <mxCell id="PCUXE8WsPGPpfUUDboGg-20" value="status" style="text;strokeColor=none;fillColor=none;spacingLeft=4;spacingRight=4;overflow=hidden;rotatable=0;points=[[0,0.5],[1,0.5]];portConstraint=eastwest;fontSize=12;" vertex="1" parent="1">
          <mxGeometry x="164" y="426" width="160" height="30" as="geometry" />
        </mxCell>
        <mxCell id="PCUXE8WsPGPpfUUDboGg-21" value="anzahlPlätze" style="text;strokeColor=none;fillColor=none;spacingLeft=4;spacingRight=4;overflow=hidden;rotatable=0;points=[[0,0.5],[1,0.5]];portConstraint=eastwest;fontSize=12;" vertex="1" parent="1">
          <mxGeometry x="164" y="446" width="160" height="30" as="geometry" />
        </mxCell>
        <mxCell id="PCUXE8WsPGPpfUUDboGg-22" value="reservationID" style="text;strokeColor=none;fillColor=none;spacingLeft=4;spacingRight=4;overflow=hidden;rotatable=0;points=[[0,0.5],[1,0.5]];portConstraint=eastwest;fontSize=12;" vertex="1" parent="1">
          <mxGeometry x="164" y="466" width="160" height="30" as="geometry" />
        </mxCell>
        <mxCell id="PCUXE8WsPGPpfUUDboGg-23" value="foodstyle" style="text;strokeColor=none;fillColor=none;spacingLeft=4;spacingRight=4;overflow=hidden;rotatable=0;points=[[0,0.5],[1,0.5]];portConstraint=eastwest;fontSize=12;" vertex="1" parent="1">
          <mxGeometry x="140" y="277" width="160" height="30" as="geometry" />
        </mxCell>
        <mxCell id="PCUXE8WsPGPpfUUDboGg-55" value="&lt;p&gt;&lt;br&gt;&lt;/p&gt;" style="shape=note;size=20;whiteSpace=wrap;html=1;align=center;" vertex="1" parent="1">
          <mxGeometry x="480" y="180" width="190" height="180" as="geometry" />
        </mxCell>
        <mxCell id="PCUXE8WsPGPpfUUDboGg-56" value="Adresse" style="text;strokeColor=none;fillColor=none;spacingLeft=4;spacingRight=4;overflow=hidden;rotatable=0;points=[[0,0.5],[1,0.5]];portConstraint=eastwest;fontSize=12;" vertex="1" parent="1">
          <mxGeometry x="490" y="270" width="160" height="34" as="geometry" />
        </mxCell>
        <mxCell id="PCUXE8WsPGPpfUUDboGg-57" value="reservationID" style="text;strokeColor=none;fillColor=none;spacingLeft=4;spacingRight=4;overflow=hidden;rotatable=0;points=[[0,0.5],[1,0.5]];portConstraint=eastwest;fontSize=12;" vertex="1" parent="1">
          <mxGeometry x="490" y="214" width="160" height="30" as="geometry" />
        </mxCell>
        <mxCell id="PCUXE8WsPGPpfUUDboGg-58" value="Name" style="text;strokeColor=none;fillColor=none;spacingLeft=4;spacingRight=4;overflow=hidden;rotatable=0;points=[[0,0.5],[1,0.5]];portConstraint=eastwest;fontSize=12;" vertex="1" parent="1">
          <mxGeometry x="490" y="240" width="160" height="30" as="geometry" />
        </mxCell>
        <mxCell id="PCUXE8WsPGPpfUUDboGg-59" value="letzterAnruf" style="text;strokeColor=none;fillColor=none;spacingLeft=4;spacingRight=4;overflow=hidden;rotatable=0;points=[[0,0.5],[1,0.5]];portConstraint=eastwest;fontSize=12;" vertex="1" parent="1">
          <mxGeometry x="490" y="297" width="160" height="30" as="geometry" />
        </mxCell>
        <mxCell id="PCUXE8WsPGPpfUUDboGg-62" value="Reservierung" style="text;strokeColor=none;fillColor=none;spacingLeft=4;spacingRight=4;overflow=hidden;rotatable=0;points=[[0,0.5],[1,0.5]];portConstraint=eastwest;fontSize=12;" vertex="1" parent="1">
          <mxGeometry x="535" y="180" width="80" height="34" as="geometry" />
        </mxCell>
        <mxCell id="PCUXE8WsPGPpfUUDboGg-72" value="" style="rounded=0;whiteSpace=wrap;html=1;fillColor=none;" vertex="1" parent="1">
          <mxGeometry x="60" y="90" width="700" height="530" as="geometry" />
        </mxCell>
        <mxCell id="PCUXE8WsPGPpfUUDboGg-73" value="MongoDB" style="text;html=1;align=center;verticalAlign=middle;resizable=0;points=[];autosize=1;" vertex="1" parent="1">
          <mxGeometry x="60" y="70" width="70" height="20" as="geometry" />
        </mxCell>
      </root>
    </mxGraphModel>
  </diagram>
</mxfile>
